<svg height="512pt" viewBox="0 0 512 512" width="512pt" xmlns="http://www.w3.org/2000/svg" xmlns:xlink="http://www.w3.org/1999/xlink"><linearGradient id="a" gradientUnits="userSpaceOnUse" x1="74.9807" x2="437.0193" y1="74.9807" y2="437.0193"><stop offset="0" stop-color="#6f5654"/><stop offset="1" stop-color="#3e322e"/></linearGradient><linearGradient id="b" gradientUnits="userSpaceOnUse" x1="345.98" x2="404.1485" y1="108.9774" y2="167.1459"><stop offset="0" stop-color="#ff7816"/><stop offset="1" stop-color="#ff4b00"/></linearGradient><linearGradient id="c" gradientUnits="userSpaceOnUse" x1="287.7665" x2="334.4437" y1="178.66" y2="225.3372"><stop offset="0" stop-color="#b34f03"/><stop offset="1" stop-color="#913f02"/></linearGradient><linearGradient id="d" gradientUnits="userSpaceOnUse" x1="96.1901" x2="173.9855" y1="339.1181" y2="416.9135"><stop offset="0" stop-color="#ff9100"/><stop offset="1" stop-color="#ff5d00"/></linearGradient><linearGradient id="e" gradientUnits="userSpaceOnUse" x1="180.2314" x2="296.4572" y1="216.4907" y2="332.7165"><stop offset="0" stop-color="#ffd400"/><stop offset="1" stop-color="#fdbf00"/></linearGradient><linearGradient id="f" gradientUnits="userSpaceOnUse" x1="79.3166" x2="252.0507" y1="260.5481" y2="433.2823"><stop offset="0" stop-color="#fdbf00"/><stop offset="1" stop-color="#ff9f00"/></linearGradient><linearGradient id="g"><stop offset="0" stop-color="#e7e7e7"/><stop offset="1" stop-color="#d3d3d8"/></linearGradient><linearGradient id="h" gradientUnits="userSpaceOnUse" x1="356.0268" x2="400.8675" xlink:href="#g" y1="300.7815" y2="345.6222"/><linearGradient id="i" gradientUnits="userSpaceOnUse" x1="167.4625" x2="212.2651" xlink:href="#g" y1="112.2552" y2="157.0578"/><linearGradient id="j" gradientUnits="userSpaceOnUse" x1="324.4338" x2="360.1503" xlink:href="#g" y1="288.3867" y2="324.1031"/><linearGradient id="k" gradientUnits="userSpaceOnUse" x1="188.9815" x2="224.66" xlink:href="#g" y1="152.9724" y2="188.6508"/><path d="m512 256c0 141.386719-114.613281 256-256 256s-256-114.613281-256-256 114.613281-256 256-256 256 114.613281 256 256zm0 0" fill="url(#a)"/><path d="m419.863281 151.429688-2.179687 1.867187-53.054688 41.855469-23.492187-2.023438-20.539063-20.539062-2.648437-24.113282 40.769531-51.96875c7.464844-9.023437 18.203125-14.46875 29.714844-15.09375 11.515625-.621093 22.871094 3.890626 31.117187 12.136719 16.027344 16.027344 16.183594 42.011719.3125 57.878907zm0 0" fill="url(#b)"/><path d="m364.628906 195.152344-60.367187 60.367187-6.535157-14.625c-2.335937-5.445312-6.070312-10.734375-10.425781-15.089843-4.355469-4.359376-9.648437-8.09375-15.09375-10.425782l-14.625-6.535156 60.367188-60.367188zm0 0" fill="url(#c)"/><path d="m119.527344 315.78125-7.777344 7.777344c-21.472656 21.472656-21.472656 56.324218 0 77.796875 21.472656 21.46875 56.324219 21.472656 77.792969 0l7.78125-7.78125zm0 0" fill="url(#d)"/><path d="m247.425781 381.75-.15625-.464844-28.007812 3.109375-93.199219-93.199219 5.757812-25.359374-.464843-.46875c10.113281-5.445313 19.605469-12.136719 27.847656-20.378907l34.742187-34.742187c23.183594-23.183594 58.347657-29.09375 87.597657-14.78125 7.625 3.269531 14.78125 8.246094 21.316406 14.78125 6.222656 6.222656 11.667969 13.847656 15.089844 21.625 14.003906 28.941406 8.09375 64.105468-15.089844 87.289062l-31.117187 31.117188c-7.9375 7.933594-18.714844 21.515625-24.316407 31.472656zm0 0" fill="url(#e)"/><path d="m233.109375 423.136719c1.867187-12.445313 5.445313-24.117188 10.582031-34.851563l3.578125-7-115.449219-115.449218-7.003906 3.265624c-11.511718 5.292969-23.492187 8.871094-36.09375 10.269532l-32.585937 4.359375 172.304687 173.160156zm0 0" fill="url(#f)"/><path d="m354.070312 391.476562-14.113281-16.882812c3.289063-2.757812 6.488281-5.667969 9.578125-8.757812 26.960938-26.964844 41.816406-62.121094 41.816406-100.378907h22c0 44.125-17.136718 84.820313-48.257812 115.9375-3.546875 3.546875-7.230469 6.914063-11.023438 10.082031zm0 0" fill="url(#h)"/><path d="m121.628906 159.03125c3.167969-3.789062 6.53125-7.476562 10.082032-11.023438 31.117187-31.117187 71.734374-48.257812 115.859374-48.257812v22.003906c-38.261718 0-73.339843 14.851563-100.300781 41.8125-3.09375 3.09375-6.003906 6.289063-8.761719 9.582032zm0 0" fill="url(#i)"/><path d="m325.871094 357.683594-14.070313-16.925782c2.273438-1.894531 4.488281-3.914062 6.617188-6.039062 18.675781-18.675781 28.953125-42.785156 28.945312-69.261719h22c.007813 32.355469-12.558593 61.988281-35.386719 84.820313-2.613281 2.613281-5.316406 5.089844-8.105468 7.40625zm0 0" fill="url(#j)"/><path d="m155.421875 187.234375c2.316406-2.789063 4.792969-5.496094 7.40625-8.105469 22.828125-22.832031 52.386719-35.398437 84.742187-35.390625v22c-26.476562-.007812-50.511718 10.273438-69.183593 28.945313-2.128907 2.128906-4.148438 4.347656-6.039063 6.617187zm0 0" fill="url(#k)"/></svg>