<?xml version="1.0" encoding="iso-8859-1"?>
<!-- Generator: Adobe Illustrator 19.0.0, SVG Export Plug-In . SVG Version: 6.00 Build 0)  -->
<svg version="1.1" id="Capa_1" xmlns="http://www.w3.org/2000/svg" xmlns:xlink="http://www.w3.org/1999/xlink" x="0px" y="0px"
	 viewBox="0 0 512 512" style="enable-background:new 0 0 512 512;" xml:space="preserve">
<circle style="fill:#77767E;" cx="256" cy="256" r="256"/>
<path style="fill:#3A383F;" d="M512,256c0-12.254-0.88-24.3-2.545-36.094l-96.637-96.636
	c-21.356-22.595-51.604-36.698-85.148-36.698c-50.484,0-93.508,31.936-109.976,76.706c-10.278-2.948-21.132-4.529-32.357-4.529
	c-64.698,0-117.146,52.448-117.146,117.146c0,31.082,12.11,59.333,31.862,80.303v40.26l111.725,111.726
	C226.145,510.685,240.918,512,256,512C397.385,512,512,397.385,512,256z"/>
<path style="fill:#00FFEA;" d="M327.671,86.572c64.698,0,117.146,52.448,117.146,117.146c0,31.082-12.11,59.333-31.863,80.303
	v40.261l-41.109-12.041c-13.633,5.555-28.544,8.624-44.174,8.624c-64.698,0-117.146-52.448-117.146-117.146
	C210.525,139.02,262.973,86.572,327.671,86.572z"/>
<path style="fill:#00CFB4;" d="M444.816,203.713c0,31.09-12.11,59.34-31.86,80.31v40.26l-41.11-12.04
	c-13.63,5.55-28.55,8.62-44.18,8.62V86.574C392.367,86.574,444.816,139.023,444.816,203.713z"/>
<rect x="312.711" y="118.88" transform="matrix(-0.9181 0.3963 -0.3963 -0.9181 656.6265 122.1222)" style="fill:#3A383F;" width="5.973" height="20.03"/>
<rect x="336.65" y="118.878" transform="matrix(0.9181 0.3963 -0.3963 0.9181 78.8914 -124.0467)" style="fill:#101012;" width="5.973" height="20.03"/>
<polygon style="fill:#77767E;" points="287.457,197.636 269.2,183.094 280.515,166.019 286.062,169.694 278.114,181.687 
	291.602,192.432 "/>
<g>
	<polygon style="fill:#3A383F;" points="367.885,197.636 363.739,192.432 377.227,181.687 369.28,169.694 374.827,166.019 
		386.141,183.094 	"/>
	<polygon style="fill:#3A383F;" points="375.925,269.463 370.378,265.788 378.326,253.795 364.838,243.05 368.984,237.846 
		387.24,252.388 	"/>
</g>
<g>
	<polygon style="fill:#77767E;" points="279.416,269.463 268.102,252.388 286.358,237.846 290.504,243.05 277.016,253.795 
		284.963,265.788 	"/>
	<polygon style="fill:#77767E;" points="263.581,233.577 257.008,232.541 260.198,212.308 283.484,213.916 283.025,220.554 
		265.822,219.366 	"/>
</g>
<polygon style="fill:#3A383F;" points="391.761,233.577 389.52,219.366 372.316,220.554 371.858,213.916 395.143,212.308 
	398.334,232.541 "/>
<ellipse style="fill:#77767E;" cx="327.67" cy="159.25" rx="23.625" ry="25.377"/>
<path style="fill:#3A383F;" d="M351.295,159.256c0,2.043-0.226,4.031-0.651,5.932c-2.249,10.08-10.098,17.827-19.821,19.22
	c-1.029,0.147-2.085,0.224-3.153,0.224v-50.757C340.718,133.875,351.295,145.24,351.295,159.256z"/>
<ellipse style="fill:#FF7B50;" cx="327.67" cy="217.95" rx="49.95" ry="59.41"/>
<path style="fill:#FF4F19;" d="M377.621,217.95c0,32.18-21.512,58.384-48.368,59.375c-0.261,0.009-0.526,0.017-0.791,0.022
	c-0.261,0.004-0.526,0.009-0.791,0.009V158.544c0.265,0,0.53,0.004,0.791,0.009c0.265,0.004,0.53,0.013,0.791,0.022
	c7.697,0.285,14.953,2.639,21.392,6.614C366.674,175.078,377.621,194.992,377.621,217.95z"/>
<path style="fill:#FF2100;" d="M327.671,158.543c-1.059,0-2.109,0.044-3.152,0.121v118.572c1.043,0.077,2.093,0.121,3.152,0.121
	c1.059,0,2.109-0.044,3.152-0.121V158.664C329.78,158.587,328.73,158.543,327.671,158.543z"/>
<path style="fill:#A70A00;" d="M330.824,158.665v118.57c-0.522,0.039-1.044,0.069-1.571,0.09c-0.261,0.009-0.526,0.017-0.791,0.022
	c-0.261,0.004-0.526,0.009-0.791,0.009V158.544c0.265,0,0.53,0.004,0.791,0.009c0.265,0.004,0.53,0.013,0.791,0.022
	C329.779,158.596,330.301,158.626,330.824,158.665z"/>
<g>
	<rect x="291.95" y="188.93" style="fill:#77767E;" width="10.582" height="12.289"/>
	<rect x="291.95" y="237.1" style="fill:#77767E;" width="10.582" height="12.289"/>
	<rect x="307.55" y="213.01" style="fill:#77767E;" width="10.581" height="12.289"/>
</g>
<g>
	<rect x="352.81" y="188.93" style="fill:#3A383F;" width="10.582" height="12.289"/>
	<rect x="352.81" y="237.1" style="fill:#3A383F;" width="10.582" height="12.289"/>
	<rect x="337.21" y="213.01" style="fill:#3A383F;" width="10.581" height="12.289"/>
</g>
<path style="fill:#FFFFFF;" d="M185.337,158.748c-64.698,0-117.146,52.448-117.146,117.146c0,31.082,12.11,59.332,31.863,80.303
	v40.261l41.109-12.041c13.633,5.555,28.544,8.624,44.174,8.624c64.698,0,117.146-52.448,117.146-117.146
	S250.035,158.748,185.337,158.748z"/>
<path style="fill:#FFEE93;" d="M302.487,275.894c0,64.67-52.4,117.1-117.06,117.15v-234.3
	C250.086,158.794,302.487,211.224,302.487,275.894z"/>
<rect x="103.61" y="232.47" style="fill:#00EED1;" width="163.46" height="90.28"/>
<rect x="185.43" y="232.46" style="fill:#00CFB4;" width="81.64" height="90.28"/>
<path style="fill:#00AF95;" d="M260.851,252.448v50.31c-7.239,0-13.11,5.871-13.11,13.11H122.934c0-7.239-5.871-13.11-13.111-13.11
	v-50.31c7.239,0,13.111-5.871,13.111-13.11h124.807C247.741,246.577,253.612,252.448,260.851,252.448z"/>
<path style="fill:#008978;" d="M260.846,252.443v50.31c-7.23,0-13.11,5.88-13.11,13.12h-62.31v-76.54h62.31
	C247.737,246.574,253.617,252.443,260.846,252.443z"/>
<circle style="fill:#00EED1;" cx="185.34" cy="277.6" r="31.26"/>
<path style="fill:#00CFB4;" d="M216.597,277.603c0,17.23-13.95,31.21-31.17,31.26v-62.52
	C202.647,246.394,216.597,260.374,216.597,277.603z"/>
<path style="fill:#00AF95;" d="M201.059,281.646c-0.634-1.328-1.534-2.467-2.704-3.42c-1.171-0.951-2.593-1.741-4.281-2.378
	c-1.628-0.61-3.436-1.186-5.416-1.726V263.64c0.211,0.045,0.422,0.087,0.631,0.141c1.229,0.319,2.37,0.706,3.42,1.161
	c1.05,0.455,1.94,0.922,2.675,1.396c0.73,0.477,1.238,0.854,1.514,1.13l3.628-6.656c-1.863-1.267-4.044-2.368-6.54-3.299
	c-1.667-0.622-3.449-1.017-5.329-1.224v-5.275h-6.643v5.438c-0.764,0.137-1.514,0.303-2.237,0.527
	c-1.862,0.573-3.498,1.415-4.905,2.525c-1.403,1.11-2.506,2.496-3.299,4.16s-1.185,3.568-1.185,5.708
	c0,1.625,0.247,3.021,0.74,4.189c0.498,1.171,1.238,2.201,2.23,3.091c0.992,0.892,2.23,1.664,3.715,2.32
	c1.404,0.617,3.057,1.19,4.941,1.718v10.497c-0.09-0.022-0.182-0.038-0.273-0.061c-1.548-0.394-2.956-0.881-4.223-1.456
	c-1.267-0.573-2.366-1.149-3.299-1.722c-0.929-0.576-1.572-1.04-1.93-1.398l-3.628,7.075c2.457,1.744,5.234,3.091,8.325,4.042
	c1.664,0.512,3.341,0.875,5.028,1.111v5.417h6.643v-5.208c1.246-0.107,2.461-0.293,3.636-0.577c1.882-0.455,3.546-1.178,4.992-2.17
	c1.447-0.989,2.593-2.288,3.449-3.894c0.851-1.604,1.277-3.536,1.277-5.795C202.012,284.609,201.693,282.974,201.059,281.646z
	 M181.264,271.748c-0.793-0.435-1.393-0.941-1.809-1.517c-0.416-0.573-0.624-1.297-0.624-2.17c0-1.507,0.551-2.675,1.664-3.507
	c0.417-0.313,0.941-0.547,1.521-0.743v8.305C181.749,271.998,181.495,271.875,181.264,271.748z M188.658,291.568v-8.877
	c0.601,0.225,1.15,0.461,1.642,0.708c0.953,0.474,1.684,1.03,2.201,1.664c0.513,0.634,0.774,1.405,0.774,2.317
	C193.275,289.762,191.719,291.147,188.658,291.568z"/>
<path style="fill:#008978;" d="M201.057,281.644c-0.63-1.33-1.53-2.46-2.7-3.42c-1.17-0.95-2.59-1.74-4.28-2.38
	c-1.63-0.61-3.44-1.18-5.42-1.72v-10.48c0.21,0.04,0.42,0.08,0.63,0.14c1.23,0.32,2.37,0.7,3.42,1.16c1.05,0.45,1.94,0.92,2.68,1.39
	c0.73,0.48,1.24,0.86,1.51,1.13l3.63-6.65c-1.86-1.27-4.04-2.37-6.54-3.3c-1.67-0.62-3.45-1.02-5.33-1.23v-5.27h-3.23v53.18h3.23
	v-5.21c1.25-0.11,2.46-0.29,3.64-0.58c1.88-0.45,3.54-1.17,4.99-2.17c1.45-0.98,2.59-2.28,3.45-3.89c0.85-1.6,1.28-3.54,1.28-5.79
	C202.017,284.613,201.697,282.974,201.057,281.644z M188.657,291.564v-8.87c0.6,0.22,1.15,0.46,1.64,0.71
	c0.96,0.47,1.69,1.03,2.21,1.66c0.51,0.63,0.77,1.41,0.77,2.32C193.277,289.763,191.717,291.144,188.657,291.564z"/>
<circle style="fill:#00EED1;" cx="131.36" cy="277.6" r="9.415"/>
<circle style="fill:#00CFB4;" cx="239.32" cy="277.6" r="9.415"/>
<g>
</g>
<g>
</g>
<g>
</g>
<g>
</g>
<g>
</g>
<g>
</g>
<g>
</g>
<g>
</g>
<g>
</g>
<g>
</g>
<g>
</g>
<g>
</g>
<g>
</g>
<g>
</g>
<g>
</g>
</svg>
